<?xml version="1.0" standalone="no"?><!DOCTYPE svg PUBLIC "-//W3C//DTD SVG 1.1//EN" "http://www.w3.org/Graphics/SVG/1.1/DTD/svg11.dtd"><svg class="icon" height="512" viewBox="0 0 1024 1024" version="1.1" xmlns="http://www.w3.org/2000/svg"><path d="M63.6 512c0 247.6 200.7 448.4 448.4 448.4 247.6 0 448.4-200.7 448.4-448.4 0-247.6-200.7-448.4-448.4-448.4C264.4 63.6 63.6 264.4 63.6 512z m0 0" fill="#5FA9F5" /><path d="M678.5 693.8H318.4c-25.9 0-46.9-21-46.9-46.9V330.3c0-25.9 21-46.9 46.9-46.9h386.9c25.9 0 46.9 21 46.9 46.9v410.4l-73.7-46.9zM429.9 447.6c-22.6 0-41.1 18.3-41.1 41.1 0 22.6 18.3 41.1 41.1 41.1 22.6 0 41.1-18.3 41.1-41.1-0.2-22.8-18.5-41.1-41.1-41.1z m164.1 0c-22.6 0-41.1 18.3-41.1 41.1 0 22.6 18.3 41.1 41.1 41.1 22.6 0 41.1-18.3 41.1-41.1-0.1-22.8-18.5-41.1-41.1-41.1z m0 0" fill="#FFFFFF" /></svg>